:FULLY-SPECIFIED
:FORCE-ALL-JOINTS-BE-3DOF
:DEGREES
645
root 5.65643 16.0757 -1.12141 13.1918 20.864 2.02227
lfemur -23.977 23.4617 -20.3816
ltibia 67.1129 -0 0
lfoot -9.23471 2.26611 -1.18312
ltoes 0.45962 -0 0
rfemur -45.6724 -15.0061 25.3441
rtibia 61.1628 -0 0
rfoot -13.2504 -0.603413 1.18309
rtoes -7.86758 0 0
lowerback 0.83725 -4.737 -2.70688
upperback -0.696538 -6.30841 1.24965
thorax -0.902535 -3.15456 2.84738
lowerneck -8.65932 -7.40735 -0.984478
upperneck 5.81933 -10.109 4.38635
head 3.61645 -4.85326 0.833245
lclavicle 1.82321e-14 -5.90238e-15 -3.90409e-32
lhumerus -13.95 -55.6069 87.6591
lradius 74.5032 -0 0
lwrist 26.8078 0 0
lhand -14.2381 -0.963974 0.0300721
lfingers 7.12502 -0 0
lthumb 11.8983 28.6539 0.0246834
rclavicle 1.82321e-14 -5.90238e-15 -3.90409e-32
rhumerus -22.6141 -6.43114 -63.1365
rradius 90.0803 -0 0
rwrist -29.7036 0 0
rhand -27.5528 -38.4408 -0.00544107
rfingers 7.12502 -0 0
rthumb -0.95401 -68.4187 -0.00525627
646
root 5.64759 16.0693 -1.07591 13.325 19.587 2.01538
lfemur -24.1076 23.6246 -20.4172
ltibia 67.5565 -0 0
lfoot -8.78808 2.04808 -1.16351
ltoes 0.472431 -0 0
rfemur -45.7092 -15.0904 25.5046
rtibia 61.3795 -0 0
rfoot -13.6287 -0.860583 1.16351
rtoes -7.50505 0 0
lowerback 0.77561 -4.8011 -2.63249
upperback -0.744632 -6.39282 1.24252
thorax -0.918323 -3.19628 2.7968
lowerneck -8.71731 -7.29943 -0.93459
upperneck 5.66933 -9.9601 4.32755
head 3.57103 -4.78366 0.820582
lclavicle 1.81276e-14 -5.93296e-15 -3.83995e-32
lhumerus -13.7207 -56.1474 87.6379
lradius 74.9209 -0 0
lwrist 26.8473 0 0
lhand -14.1537 -0.934802 0.029578
lfingers 7.12502 -0 0
lthumb 11.9797 28.6787 0.0242778
rclavicle 1.81276e-14 -5.93296e-15 -3.83995e-32
rhumerus -23.5903 -6.75612 -62.7602
rradius 89.2262 -0 0
rwrist -29.3615 0 0
rhand -27.5516 -38.7948 -0.00535129
rfingers 7.12502 -0 0
rthumb -0.952791 -68.7727 -0.00516954
647
root 5.63876 16.0628 -1.0304 13.4574 18.3099 2.00541
lfemur -24.2385 23.7874 -20.4533
ltibia 68.0002 -0 0
lfoot -8.34153 1.83022 -1.14221
ltoes 0.485243 -0 0
rfemur -45.7463 -15.1746 25.6652
rtibia 61.5961 -0 0
rfoot -14.0069 -1.11762 1.14224
rtoes -7.14252 0 0
lowerback 0.71388 -4.86511 -2.55801
upperback -0.792724 -6.47722 1.23545
thorax -0.934075 -3.23801 2.74622
lowerneck -8.77519 -7.19147 -0.884824
upperneck 5.51923 -9.81137 4.26838
head 3.52561 -4.71408 0.807864
lclavicle 1.80231e-14 -5.96354e-15 -3.77023e-32
lhumerus -13.4879 -56.6877 87.6124
lradius 75.3386 -0 0
lwrist 26.8867 0 0
lhand -14.0693 -0.905631 0.0290408
lfingers 7.12502 -0 0
lthumb 12.0611 28.7035 0.0238369
rclavicle 1.80231e-14 -5.96354e-15 -3.77023e-32
rhumerus -24.5692 -7.07466 -62.3781
rradius 88.3721 -0 0
rwrist -29.0194 0 0
rhand -27.5503 -39.1487 -0.00525372
rfingers 7.12502 -0 0
rthumb -0.951573 -69.1267 -0.00507528
648
root 5.62993 16.0564 -0.984894 13.5891 17.0329 1.99244
lfemur -24.3696 23.9501 -20.4898
ltibia 68.4438 -0 0
lfoot -7.89508 1.61253 -1.11921
ltoes 0.498054 -0 0
rfemur -45.7837 -15.2587 25.8259
rtibia 61.8127 -0 0
rfoot -14.385 -1.3745 1.11926
rtoes -6.77999 0 0
lowerback 0.652061 -4.92905 -2.48346
upperback -0.840814 -6.56164 1.22846
thorax -0.949791 -3.27976 2.69565
lowerneck -8.83296 -7.08346 -0.83518
upperneck 5.36905 -9.6628 4.20884
head 3.48017 -4.6445 0.795093
lclavicle 1.79186e-14 -5.99412e-15 -3.69494e-32
lhumerus -13.2512 -57.228 87.5824
lradius 75.7563 -0 0
lwrist 26.9262 0 0
lhand -13.9849 -0.876461 0.0284607
lfingers 7.12502 -0 0
lthumb 12.1425 28.7283 0.0233608
rclavicle 1.79186e-14 -5.99412e-15 -3.69494e-32
rhumerus -25.5509 -7.38667 -61.9903
rradius 87.518 -0 0
rwrist -28.6773 0 0
rhand -27.5491 -39.5027 -0.00514835
rfingers 7.12502 -0 0
rthumb -0.950356 -69.4806 -0.00497349
